<?xml version="1.0" encoding="utf-8"?>
<!-- Generated by IcoMoon.io -->
<!DOCTYPE svg PUBLIC "-//W3C//DTD SVG 1.1//EN" "http://www.w3.org/Graphics/SVG/1.1/DTD/svg11.dtd">
<svg version="1.1" xmlns="http://www.w3.org/2000/svg" xmlns:xlink="http://www.w3.org/1999/xlink" width="32" height="32" viewBox="0 0 32 32">
<path fill="#444444" d="M12.5 1c-4.75 0-9.5 0.938-9.5 3v18c0 2.063 4.75 3 9.5 3 0.688 0 1.375 0 2-0.063 0.313 0 0.5-0.25 0.5-0.5 0-0.313-0.25-0.5-0.5-0.5-0.688 0.063-1.313 0.063-2 0.063-5.5 0-8.5-1.188-8.5-2v-4.563c1.625 1.063 5.063 1.563 8.5 1.563 4.75 0 9.5-0.938 9.5-3v-12c0-2.063-4.75-3-9.5-3zM21 10c0 0.813-3 2-8.5 2s-8.5-1.188-8.5-2v-4.563c1.625 1.063 5.063 1.563 8.5 1.563s6.875-0.5 8.5-1.563zM12.5 2c5.5 0 8.5 1.188 8.5 2s-3 2-8.5 2c-5.5 0-8.5-1.188-8.5-2s3-2 8.5-2zM12.5 18c-5.5 0-8.5-1.188-8.5-2v-4.563c1.625 1.063 5.063 1.563 8.5 1.563s6.875-0.5 8.5-1.563v4.563c0 0.813-3 2-8.5 2zM28.625 16.375l-1-1c-0.5-0.5-1.313-0.438-1.75 0l-0.875 0.813c0 0 0 0-0.063 0 0 0 0 0 0 0l-7.563 7.688c0 0 0 0 0 0s0 0 0 0l-0.188 0.188c-0.063 0-0.063 0.063-0.125 0.125l-2 4.063c-0.125 0.25-0.063 0.438 0.063 0.625 0.125 0.063 0.25 0.125 0.375 0.125 0.063 0 0.125 0 0.25-0.063l4.063-2c0.063-0.063 0.125-0.063 0.125-0.125l8.688-8.688c0.5-0.438 0.5-1.25 0-1.75zM17.813 25l1.188 1.188-2.375 1.188zM19.813 25.563l-1.375-1.375 6.875-6.938 1.375 1.375zM27.938 17.438l-0.563 0.5-1.313-1.375 0.5-0.5c0.063-0.063 0.125-0.063 0.188-0.063 0 0 0.063 0 0.125 0.063l1.063 1.063c0.063 0.063 0.063 0.25 0 0.313z"></path>
</svg>
