<?xml version="1.0" encoding="utf-8"?>
<!-- Generated by IcoMoon.io -->
<!DOCTYPE svg PUBLIC "-//W3C//DTD SVG 1.1//EN" "http://www.w3.org/Graphics/SVG/1.1/DTD/svg11.dtd">
<svg version="1.1" xmlns="http://www.w3.org/2000/svg" xmlns:xlink="http://www.w3.org/1999/xlink" width="32" height="32" viewBox="0 0 32 32">
<path fill="#444444" d="M4.5 10c-1.375 0-2.5-1.125-2.5-2.5s1.125-2.5 2.5-2.5c1.375 0 2.5 1.125 2.5 2.5s-1.125 2.5-2.5 2.5zM4.5 6c-0.813 0-1.5 0.688-1.5 1.5s0.688 1.5 1.5 1.5c0.813 0 1.5-0.688 1.5-1.5s-0.688-1.5-1.5-1.5zM4.5 19c-1.375 0-2.5-1.125-2.5-2.5s1.125-2.5 2.5-2.5c1.375 0 2.5 1.125 2.5 2.5s-1.125 2.5-2.5 2.5zM4.5 15c-0.813 0-1.5 0.688-1.5 1.5s0.688 1.5 1.5 1.5c0.813 0 1.5-0.688 1.5-1.5s-0.688-1.5-1.5-1.5zM4.5 28c-1.375 0-2.5-1.125-2.5-2.5s1.125-2.5 2.5-2.5c1.375 0 2.5 1.125 2.5 2.5s-1.125 2.5-2.5 2.5zM4.5 24c-0.813 0-1.5 0.688-1.5 1.5s0.688 1.5 1.5 1.5c0.813 0 1.5-0.688 1.5-1.5s-0.688-1.5-1.5-1.5zM29.5 8h-19c-0.25 0-0.5-0.25-0.5-0.5s0.25-0.5 0.5-0.5h19c0.25 0 0.5 0.25 0.5 0.5s-0.25 0.5-0.5 0.5zM29.5 17h-19c-0.25 0-0.5-0.25-0.5-0.5s0.25-0.5 0.5-0.5h19c0.25 0 0.5 0.25 0.5 0.5s-0.25 0.5-0.5 0.5zM29.5 26h-19c-0.25 0-0.5-0.25-0.5-0.5s0.25-0.5 0.5-0.5h19c0.25 0 0.5 0.25 0.5 0.5s-0.25 0.5-0.5 0.5z"></path>
</svg>
