<?xml version="1.0" encoding="utf-8"?>
<!-- Generated by IcoMoon.io -->
<!DOCTYPE svg PUBLIC "-//W3C//DTD SVG 1.1//EN" "http://www.w3.org/Graphics/SVG/1.1/DTD/svg11.dtd">
<svg version="1.1" xmlns="http://www.w3.org/2000/svg" xmlns:xlink="http://www.w3.org/1999/xlink" width="32" height="32" viewBox="0 0 32 32">
<path fill="#444444" d="M22.875 6.625l-5.5-5.5c-0.125-0.063-0.25-0.125-0.375-0.125h-10c-1.125 0-2 0.875-2 2v20c0 1.125 0.875 2 2 2h8.5c0.25 0 0.5-0.25 0.5-0.5s-0.25-0.5-0.5-0.5h-8.5c-0.563 0-1-0.438-1-1v-20c0-0.563 0.438-1 1-1h9v4c0 1.125 0.875 2 2 2h4v5.5c0 0.25 0.25 0.5 0.5 0.5s0.5-0.25 0.5-0.5v-6.5c0-0.125-0.063-0.25-0.125-0.375zM17 6v-3.813l4.813 4.813h-3.813c-0.563 0-1-0.438-1-1zM19.5 26c-0.25 0-0.5-0.25-0.5-0.5v-6c0-0.25 0.25-0.5 0.5-0.5s0.5 0.25 0.5 0.5v6c0 0.25-0.25 0.5-0.5 0.5zM21.5 26c-0.25 0-0.5-0.25-0.5-0.5v-6c0-0.25 0.25-0.5 0.5-0.5s0.5 0.25 0.5 0.5v6c0 0.25-0.25 0.5-0.5 0.5zM23.5 26c-0.25 0-0.5-0.25-0.5-0.5v-6c0-0.25 0.25-0.5 0.5-0.5s0.5 0.25 0.5 0.5v6c0 0.25-0.25 0.5-0.5 0.5zM26.5 17h-2.5c0-1.125-0.875-2-2-2h-1c-1.125 0-2 0.875-2 2v0h-2.5c-0.25 0-0.5 0.25-0.5 0.5s0.25 0.5 0.5 0.5h0.5v8c0 1.125 0.875 2 2 2h5c1.125 0 2-0.875 2-2v-8h0.5c0.25 0 0.5-0.25 0.5-0.5s-0.25-0.5-0.5-0.5zM20 17c0-0.563 0.438-1 1-1h1c0.563 0 1 0.438 1 1v0h-3zM25 26c0 0.563-0.438 1-1 1h-5c-0.563 0-1-0.438-1-1v-8h7z"></path>
</svg>
