<?xml version="1.0" encoding="utf-8"?>
<!-- Generated by IcoMoon.io -->
<!DOCTYPE svg PUBLIC "-//W3C//DTD SVG 1.1//EN" "http://www.w3.org/Graphics/SVG/1.1/DTD/svg11.dtd">
<svg version="1.1" xmlns="http://www.w3.org/2000/svg" xmlns:xlink="http://www.w3.org/1999/xlink" width="32" height="32" viewBox="0 0 32 32">
<path fill="#444444" d="M26.5 2c-1.938 0-3.5 1.563-3.5 3.5 0 1.125 0.563 2.188 1.438 2.813l-3.75 6.875c-0.375-0.125-0.75-0.188-1.188-0.188-0.625 0-1.25 0.188-1.75 0.438l-2.75-3.5c0.625-0.625 1-1.5 1-2.438 0-1.938-1.563-3.5-3.5-3.5s-3.5 1.563-3.5 3.5c0 1.125 0.563 2.188 1.438 2.813l-3.75 6.875c-0.375-0.125-0.75-0.188-1.188-0.188-1.938 0-3.5 1.563-3.5 3.5s1.563 3.5 3.5 3.5c1.938 0 3.5-1.563 3.5-3.5 0-1.125-0.563-2.188-1.438-2.813l3.75-6.875c0.375 0.125 0.75 0.188 1.188 0.188 0.625 0 1.25-0.188 1.75-0.438l2.75 3.5c-0.625 0.625-1 1.5-1 2.438 0 1.938 1.563 3.5 3.5 3.5s3.5-1.563 3.5-3.5c0-1.125-0.563-2.188-1.438-2.813l3.75-6.875c0.375 0.125 0.75 0.188 1.188 0.188 1.938 0 3.5-1.563 3.5-3.5s-1.563-3.5-3.5-3.5zM8 22.5c0 1.375-1.125 2.5-2.5 2.5s-2.5-1.125-2.5-2.5c0-1.375 1.125-2.5 2.5-2.5s2.5 1.125 2.5 2.5zM10 9.5c0-1.375 1.125-2.5 2.5-2.5s2.5 1.125 2.5 2.5c0 1.375-1.125 2.5-2.5 2.5s-2.5-1.125-2.5-2.5zM22 18.5c0 1.375-1.125 2.5-2.5 2.5s-2.5-1.125-2.5-2.5c0-1.375 1.125-2.5 2.5-2.5s2.5 1.125 2.5 2.5zM26.5 8c-1.375 0-2.5-1.125-2.5-2.5s1.125-2.5 2.5-2.5c1.375 0 2.5 1.125 2.5 2.5s-1.125 2.5-2.5 2.5z"></path>
</svg>
