<?xml version="1.0" encoding="utf-8"?>
<!-- Generated by IcoMoon.io -->
<!DOCTYPE svg PUBLIC "-//W3C//DTD SVG 1.1//EN" "http://www.w3.org/Graphics/SVG/1.1/DTD/svg11.dtd">
<svg version="1.1" xmlns="http://www.w3.org/2000/svg" xmlns:xlink="http://www.w3.org/1999/xlink" width="32" height="32" viewBox="0 0 32 32">
<path fill="#444444" d="M29.875 16.625l-3-3c-0.063 0-0.125-0.063-0.188-0.063-0.125-0.063-0.25-0.063-0.375 0-0.063 0-0.125 0.063-0.188 0.063l-3 3c-0.188 0.188-0.188 0.563 0 0.75s0.563 0.188 0.75 0l2-2.063c-0.625 4.875-4.813 8.688-9.875 8.688-4.375 0-8.313-2.938-9.563-7.125-0.125-0.25-0.375-0.438-0.625-0.313-0.25 0.063-0.438 0.313-0.375 0.625 1.438 4.563 5.75 7.813 10.563 7.813 5.688 0 10.375-4.313 10.938-9.875l2.188 2.25c0.125 0.063 0.25 0.125 0.375 0.125s0.25-0.063 0.375-0.125c0.188-0.188 0.188-0.563 0-0.75zM26.563 10.875c-1.375-4.625-5.75-7.875-10.563-7.875-5.688 0-10.375 4.313-10.938 9.875l-2.188-2.25c-0.188-0.188-0.563-0.188-0.75 0s-0.188 0.563 0 0.75l3 3c0.063 0 0.125 0.063 0.188 0.063 0.063 0.063 0.125 0.063 0.188 0.063s0.125 0 0.188-0.063c0.063 0 0.125-0.063 0.188-0.063l3-3c0.188-0.188 0.188-0.563 0-0.75s-0.563-0.188-0.75 0l-2 2.063c0.625-4.875 4.813-8.688 9.875-8.688 4.375 0 8.313 2.938 9.563 7.125 0.125 0.25 0.375 0.438 0.625 0.375 0.313-0.125 0.438-0.375 0.375-0.625z"></path>
</svg>
