<?xml version="1.0" encoding="utf-8"?>
<!-- Generated by IcoMoon.io -->
<!DOCTYPE svg PUBLIC "-//W3C//DTD SVG 1.1//EN" "http://www.w3.org/Graphics/SVG/1.1/DTD/svg11.dtd">
<svg version="1.1" xmlns="http://www.w3.org/2000/svg" xmlns:xlink="http://www.w3.org/1999/xlink" width="32" height="32" viewBox="0 0 32 32">
<path fill="#444444" d="M4.5 23c-0.125 0-0.188 0-0.313-0.063-0.125-0.125-0.188-0.313-0.188-0.5l0.563-3.375c-1.688-1.563-2.563-3.5-2.563-5.563 0-4.688 4.688-8.5 10.5-8.5s10.5 3.813 10.5 8.5c0 4.688-4.688 8.5-10.5 8.5-1.625 0-3.188-0.313-4.625-0.875l-3.125 1.813c-0.063 0.063-0.188 0.063-0.25 0.063zM5.438 18.5c0.125 0.125 0.188 0.25 0.125 0.438l-0.375 2.625 2.438-1.438c0.125-0.063 0.25-0.063 0.438 0 1.375 0.563 2.875 0.875 4.438 0.875 5.25 0 9.5-3.375 9.5-7.5s-4.25-7.5-9.5-7.5c-5.25 0-9.5 3.375-9.5 7.5 0 1.813 0.875 3.625 2.438 5zM27.5 27c-0.063 0-0.188 0-0.25-0.063l-3.125-1.813c-1.438 0.563-3 0.875-4.625 0.875-2.563 0-5-0.75-6.875-2.125-0.25-0.125-0.313-0.438-0.125-0.688 0.125-0.188 0.438-0.25 0.688-0.125 1.75 1.25 4 1.938 6.313 1.938 1.563 0 3.063-0.313 4.438-0.875 0.188-0.063 0.313-0.063 0.438 0l2.438 1.438-0.375-2.625c-0.063-0.188 0-0.313 0.125-0.438 1.563-1.375 2.438-3.188 2.438-5 0-2.875-2.063-5.438-5.313-6.75-0.25-0.063-0.375-0.375-0.25-0.625 0.063-0.25 0.375-0.375 0.625-0.25 3.688 1.375 5.938 4.313 5.938 7.625 0 2.063-0.875 4-2.563 5.563l0.563 3.375c0 0.188-0.063 0.375-0.188 0.5-0.125 0.063-0.188 0.063-0.313 0.063z"></path>
</svg>
