<?xml version="1.0" encoding="utf-8"?>
<!-- Generated by IcoMoon.io -->
<!DOCTYPE svg PUBLIC "-//W3C//DTD SVG 1.1//EN" "http://www.w3.org/Graphics/SVG/1.1/DTD/svg11.dtd">
<svg version="1.1" xmlns="http://www.w3.org/2000/svg" xmlns:xlink="http://www.w3.org/1999/xlink" width="32" height="32" viewBox="0 0 32 32">
<path fill="#444444" d="M21.875 6.625l-5.5-5.5c-0.125-0.063-0.25-0.125-0.375-0.125h-10c-1.125 0-2 0.875-2 2v20c0 1.125 0.875 2 2 2h5.5c0.25 0 0.5-0.25 0.5-0.5s-0.25-0.5-0.5-0.5h-5.5c-0.563 0-1-0.438-1-1v-20c0-0.563 0.438-1 1-1h9v4c0 1.125 0.875 2 2 2h4v7.5c0 0.25 0.25 0.5 0.5 0.5s0.5-0.25 0.5-0.5v-8.5c0-0.125-0.063-0.25-0.125-0.375zM16 6v-3.813l4.813 4.813h-3.813c-0.563 0-1-0.438-1-1zM26.625 17.313c0 0 0 0-0.063 0 0 0 0 0 0 0-0.188-0.188-0.5-0.313-0.813-0.313h-11.5c-0.313 0-0.625 0.125-0.813 0.313 0 0-0.063 0-0.063 0 0 0.063 0 0.063 0 0.063-0.25 0.188-0.375 0.5-0.375 0.875v8.5c0 0.688 0.563 1.25 1.25 1.25h11.5c0.688 0 1.25-0.563 1.25-1.25v-8.5c0-0.375-0.125-0.688-0.375-0.938zM23.375 23.625c-0.188-0.188-0.563-0.188-0.75 0s-0.188 0.563 0 0.75l2.688 2.625h-10.625l2.688-2.625c0.188-0.188 0.188-0.563 0-0.75s-0.563-0.188-0.75 0l-2.625 2.688v-7.625l5.125 5.188c0.25 0.188 0.563 0.375 0.875 0.375 0.375 0 0.688-0.188 0.938-0.375l5.063-5.25v7.688zM14.75 18h10.5l-5.063 5.125c-0.063 0.125-0.25 0.125-0.313 0z"></path>
</svg>
