<?xml version="1.0" encoding="utf-8"?>
<!-- Generated by IcoMoon.io -->
<!DOCTYPE svg PUBLIC "-//W3C//DTD SVG 1.1//EN" "http://www.w3.org/Graphics/SVG/1.1/DTD/svg11.dtd">
<svg version="1.1" xmlns="http://www.w3.org/2000/svg" xmlns:xlink="http://www.w3.org/1999/xlink" width="32" height="32" viewBox="0 0 32 32">
<path fill="#444444" d="M16 21.333c-0.735 0-1.333-0.598-1.333-1.333s0.598-1.333 1.333-1.333c0.736 0 1.333 0.598 1.333 1.333s-0.598 1.333-1.333 1.333z"></path>
<path fill="#444444" d="M16 25.333c-0.368 0-0.667-0.298-0.667-0.667v-4c0-0.369 0.298-0.667 0.667-0.667s0.667 0.298 0.667 0.667v4c0 0.369-0.298 0.667-0.667 0.667z"></path>
<path fill="#444444" d="M27.333 32h-22.667c-0.369 0-0.667-0.298-0.667-0.667v-18.667c0-0.368 0.298-0.667 0.667-0.667h18v-4c0-3.676-2.991-6.667-6.667-6.667s-6.667 2.991-6.667 6.667h-1.333c0-4.411 3.589-8 8-8s8 3.589 8 8v4h3.333c0.369 0 0.667 0.298 0.667 0.667v18.667c0 0.368-0.298 0.667-0.667 0.667zM5.333 30.667h21.333v-17.333h-21.333v17.333z"></path>
</svg>
