<?xml version="1.0" encoding="utf-8"?>
<!-- Generated by IcoMoon.io -->
<!DOCTYPE svg PUBLIC "-//W3C//DTD SVG 1.1//EN" "http://www.w3.org/Graphics/SVG/1.1/DTD/svg11.dtd">
<svg version="1.1" xmlns="http://www.w3.org/2000/svg" xmlns:xlink="http://www.w3.org/1999/xlink" width="32" height="32" viewBox="0 0 32 32">
<path fill="#444444" d="M25.875 6.625l-5.5-5.5c-0.125-0.063-0.25-0.125-0.375-0.125h-13c-1.125 0-2 0.875-2 2v23c0 1.125 0.875 2 2 2h17c1.125 0 2-0.875 2-2v-19c0-0.125-0.063-0.25-0.125-0.375zM24.813 7h-3.813c-0.563 0-1-0.438-1-1v-3.813zM24 27h-17c-0.563 0-1-0.438-1-1v-23c0-0.563 0.438-1 1-1h12v4c0 1.125 0.875 2 2 2h4v18c0 0.563-0.438 1-1 1z"></path>
</svg>
