<?xml version="1.0" encoding="utf-8"?>
<!-- Generated by IcoMoon.io -->
<!DOCTYPE svg PUBLIC "-//W3C//DTD SVG 1.1//EN" "http://www.w3.org/Graphics/SVG/1.1/DTD/svg11.dtd">
<svg version="1.1" xmlns="http://www.w3.org/2000/svg" xmlns:xlink="http://www.w3.org/1999/xlink" width="32" height="32" viewBox="0 0 32 32">
<path fill="#444444" d="M17.5 29c-0.125 0-0.25-0.063-0.375-0.125l-4-4c-0.063-0.125-0.125-0.25-0.125-0.375v-10.813l-9.875-9.813c-0.125-0.188-0.188-0.375-0.063-0.563 0.063-0.188 0.25-0.313 0.438-0.313h24c0.188 0 0.375 0.125 0.438 0.313 0.125 0.188 0.063 0.375-0.063 0.563l-9.875 9.813v14.813c0 0.188-0.125 0.375-0.313 0.438-0.063 0.063-0.125 0.063-0.188 0.063zM14 24.313l3 3v-13.813c0-0.125 0.063-0.25 0.125-0.375l9.188-9.125h-21.625l9.188 9.125c0.063 0.125 0.125 0.25 0.125 0.375z"></path>
</svg>
