<?xml version="1.0" encoding="utf-8"?>
<!-- Generated by IcoMoon.io -->
<!DOCTYPE svg PUBLIC "-//W3C//DTD SVG 1.1//EN" "http://www.w3.org/Graphics/SVG/1.1/DTD/svg11.dtd">
<svg version="1.1" xmlns="http://www.w3.org/2000/svg" xmlns:xlink="http://www.w3.org/1999/xlink" width="32" height="32" viewBox="0 0 32 32">
<path fill="#444444" d="M12 25h-2c-1.125 0-2-0.875-2-2v-18c0-1.125 0.875-2 2-2h2c1.125 0 2 0.875 2 2v18c0 1.125-0.875 2-2 2zM10 4c-0.563 0-1 0.438-1 1v18c0 0.563 0.438 1 1 1h2c0.563 0 1-0.438 1-1v-18c0-0.563-0.438-1-1-1zM22 25h-2c-1.125 0-2-0.875-2-2v-18c0-1.125 0.875-2 2-2h2c1.125 0 2 0.875 2 2v18c0 1.125-0.875 2-2 2zM20 4c-0.563 0-1 0.438-1 1v18c0 0.563 0.438 1 1 1h2c0.563 0 1-0.438 1-1v-18c0-0.563-0.438-1-1-1z"></path>
</svg>
