<?xml version="1.0" encoding="utf-8"?>
<!-- Generated by IcoMoon.io -->
<!DOCTYPE svg PUBLIC "-//W3C//DTD SVG 1.1//EN" "http://www.w3.org/Graphics/SVG/1.1/DTD/svg11.dtd">
<svg version="1.1" xmlns="http://www.w3.org/2000/svg" xmlns:xlink="http://www.w3.org/1999/xlink" width="32" height="32" viewBox="0 0 32 32">
<path fill="#444444" d="M27 11h-4v-5c0-0.125-0.063-0.25-0.125-0.375l-3.5-3.5c-0.125-0.063-0.25-0.125-0.375-0.125h-10.5c-0.25 0-0.5 0.25-0.5 0.5v8.5h-4c-1.125 0-2 0.875-2 2v9c0 1.125 0.875 2 2 2h4v5.5c0 0.25 0.25 0.5 0.5 0.5h14c0.25 0 0.5-0.25 0.5-0.5v-5.5h4c1.125 0 2-0.875 2-2v-9c0-1.125-0.875-2-2-2zM21.813 6h-2.813v-2.813zM9 3h9v3.5c0 0.25 0.25 0.5 0.5 0.5h3.5v6h-13zM22 29h-13v-10h13zM28 22c0 0.563-0.438 1-1 1h-4v-4.5c0-0.25-0.25-0.5-0.5-0.5h-14c-0.25 0-0.5 0.25-0.5 0.5v4.5h-4c-0.563 0-1-0.438-1-1v-9c0-0.563 0.438-1 1-1h4v1.5c0 0.25 0.25 0.5 0.5 0.5h14c0.25 0 0.5-0.25 0.5-0.5v-1.5h4c0.563 0 1 0.438 1 1z"></path>
</svg>
