<?xml version="1.0" encoding="utf-8"?>
<!-- Generated by IcoMoon.io -->
<!DOCTYPE svg PUBLIC "-//W3C//DTD SVG 1.1//EN" "http://www.w3.org/Graphics/SVG/1.1/DTD/svg11.dtd">
<svg version="1.1" xmlns="http://www.w3.org/2000/svg" xmlns:xlink="http://www.w3.org/1999/xlink" width="32" height="32" viewBox="0 0 32 32">
<path fill="#444444" d="M28 5h-24c-1.125 0-2 0.875-2 2v15c0 1.125 0.875 2 2 2h12v1.063l-6.563 0.938c-0.313 0.063-0.5 0.313-0.438 0.563 0.063 0.313 0.313 0.5 0.563 0.438l6.938-1 6.938 1c0 0 0.063 0 0.063 0 0.25 0 0.438-0.188 0.5-0.438s-0.188-0.5-0.438-0.563l-6.563-0.938v-1.063h11c1.125 0 2-0.875 2-2v-15c0-1.125-0.875-2-2-2zM29 22c0 0.563-0.438 1-1 1h-24c-0.563 0-1-0.438-1-1v-15c0-0.563 0.438-1 1-1h24c0.563 0 1 0.438 1 1z"></path>
</svg>
