<?xml version="1.0" encoding="utf-8"?>
<!-- Generated by IcoMoon.io -->
<!DOCTYPE svg PUBLIC "-//W3C//DTD SVG 1.1//EN" "http://www.w3.org/Graphics/SVG/1.1/DTD/svg11.dtd">
<svg version="1.1" xmlns="http://www.w3.org/2000/svg" xmlns:xlink="http://www.w3.org/1999/xlink" width="32" height="32" viewBox="0 0 32 32">
<path fill="#444444" d="M22.5 9h-11c-0.25 0-0.5-0.25-0.5-0.5s0.25-0.5 0.5-0.5h11c0.25 0 0.5 0.25 0.5 0.5s-0.25 0.5-0.5 0.5zM20.5 12h-7c-0.25 0-0.5-0.25-0.5-0.5s0.25-0.5 0.5-0.5h7c0.25 0 0.5 0.25 0.5 0.5s-0.25 0.5-0.5 0.5zM25 1h-17c-1.125 0-2 0.875-2 2v2h-0.5c-0.25 0-0.5 0.25-0.5 0.5s0.25 0.5 0.5 0.5h0.5v2h-0.5c-0.25 0-0.5 0.25-0.5 0.5s0.25 0.5 0.5 0.5h0.5v2h-0.5c-0.25 0-0.5 0.25-0.5 0.5s0.25 0.5 0.5 0.5h0.5v2h-0.5c-0.25 0-0.5 0.25-0.5 0.5s0.25 0.5 0.5 0.5h0.5v2h-0.5c-0.25 0-0.5 0.25-0.5 0.5s0.25 0.5 0.5 0.5h0.5v2h-0.5c-0.25 0-0.5 0.25-0.5 0.5s0.25 0.5 0.5 0.5h0.5v2h-0.5c-0.25 0-0.5 0.25-0.5 0.5s0.25 0.5 0.5 0.5h0.5v2c0 1.125 0.875 2 2 2h17c1.125 0 2-0.875 2-2v-23c0-1.125-0.875-2-2-2zM26 26c0 0.563-0.438 1-1 1h-17c-0.563 0-1-0.438-1-1v-2h1.5c0.25 0 0.5-0.25 0.5-0.5s-0.25-0.5-0.5-0.5h-1.5v-2h1.5c0.25 0 0.5-0.25 0.5-0.5s-0.25-0.5-0.5-0.5h-1.5v-2h1.5c0.25 0 0.5-0.25 0.5-0.5s-0.25-0.5-0.5-0.5h-1.5v-2h1.5c0.25 0 0.5-0.25 0.5-0.5s-0.25-0.5-0.5-0.5h-1.5v-2h1.5c0.25 0 0.5-0.25 0.5-0.5s-0.25-0.5-0.5-0.5h-1.5v-2h1.5c0.25 0 0.5-0.25 0.5-0.5s-0.25-0.5-0.5-0.5h-1.5v-2h1.5c0.25 0 0.5-0.25 0.5-0.5s-0.25-0.5-0.5-0.5h-1.5v-2c0-0.563 0.438-1 1-1h17c0.563 0 1 0.438 1 1z"></path>
</svg>
