<?xml version="1.0" encoding="utf-8"?>
<!-- Generated by IcoMoon.io -->
<!DOCTYPE svg PUBLIC "-//W3C//DTD SVG 1.1//EN" "http://www.w3.org/Graphics/SVG/1.1/DTD/svg11.dtd">
<svg version="1.1" xmlns="http://www.w3.org/2000/svg" xmlns:xlink="http://www.w3.org/1999/xlink" width="32" height="32" viewBox="0 0 32 32">
<path fill="#444444" d="M14 24c-0.375 0-0.75-0.125-1.125-0.375l-11-7.5c-0.563-0.313-0.875-0.938-0.875-1.625s0.313-1.313 0.875-1.688l10.938-7.438c1.5-0.938 3.188 0.125 3.188 1.625v15c0 1.125-0.875 2-2 2zM14 6c-0.188 0-0.375 0.063-0.625 0.188l-10.938 7.5c-0.25 0.188-0.438 0.5-0.438 0.813s0.188 0.625 0.438 0.813l10.938 7.5c0.813 0.5 1.625-0.063 1.625-0.813v-15c0-0.563-0.438-1-1-1zM29 24c-0.375 0-0.75-0.125-1.125-0.375l-11-7.5c-0.563-0.313-0.875-0.938-0.875-1.625s0.313-1.313 0.875-1.688l10.938-7.438c1.5-0.938 3.188 0.125 3.188 1.625v15c0 1.125-0.875 2-2 2zM29 6c-0.188 0-0.375 0.063-0.625 0.188l-10.938 7.5c-0.25 0.188-0.438 0.5-0.438 0.813s0.188 0.625 0.438 0.813l10.938 7.5c0.813 0.5 1.625-0.063 1.625-0.813v-15c0-0.563-0.438-1-1-1z"></path>
</svg>
