<?xml version="1.0" encoding="utf-8"?>
<!-- Generated by IcoMoon.io -->
<!DOCTYPE svg PUBLIC "-//W3C//DTD SVG 1.1//EN" "http://www.w3.org/Graphics/SVG/1.1/DTD/svg11.dtd">
<svg version="1.1" xmlns="http://www.w3.org/2000/svg" xmlns:xlink="http://www.w3.org/1999/xlink" width="32" height="32" viewBox="0 0 32 32">
<path fill="#444444" d="M16 0c-5.313 0-11 1.125-11 3.5v21c0 2.375 5.688 3.5 11 3.5s11-1.125 11-3.5v-21c0-2.375-5.688-3.5-11-3.5zM26 17.5c0 1-3.563 2.5-10 2.5s-10-1.5-10-2.5v-5.438c1.875 1.313 6.063 1.938 10 1.938s8.125-0.625 10-1.938zM26 10.5c0 1-3.563 2.5-10 2.5s-10-1.5-10-2.5v-5.438c1.875 1.313 6.063 1.938 10 1.938s8.125-0.625 10-1.938zM16 1c6.438 0 10 1.5 10 2.5s-3.563 2.5-10 2.5c-6.438 0-10-1.5-10-2.5s3.563-2.5 10-2.5zM16 27c-6.438 0-10-1.5-10-2.5v-5.438c1.875 1.313 6.063 1.938 10 1.938s8.125-0.625 10-1.938v5.438c0 1-3.563 2.5-10 2.5z"></path>
</svg>
