<?xml version="1.0" encoding="utf-8"?>
<!-- Generated by IcoMoon.io -->
<!DOCTYPE svg PUBLIC "-//W3C//DTD SVG 1.1//EN" "http://www.w3.org/Graphics/SVG/1.1/DTD/svg11.dtd">
<svg version="1.1" xmlns="http://www.w3.org/2000/svg" xmlns:xlink="http://www.w3.org/1999/xlink" width="32" height="32" viewBox="0 0 32 32">
<path fill="#444444" d="M22.875 6.625l-5.5-5.5c-0.125-0.063-0.25-0.125-0.375-0.125h-10c-1.125 0-2 0.875-2 2v20c0 1.125 0.875 2 2 2h6.5c0.25 0 0.5-0.25 0.5-0.5s-0.25-0.5-0.5-0.5h-6.5c-0.563 0-1-0.438-1-1v-20c0-0.563 0.438-1 1-1h9v4c0 1.125 0.875 2 2 2h4v4.5c0 0.25 0.25 0.5 0.5 0.5s0.5-0.25 0.5-0.5v-5.5c0-0.125-0.063-0.25-0.125-0.375zM17 6v-3.813l4.813 4.813h-3.813c-0.563 0-1-0.438-1-1zM22 15c-2.75 0-5 2.25-5 5 0 1.188 0.438 2.313 1.125 3.188l-4 3.938c-0.188 0.188-0.188 0.563 0 0.75 0.125 0.063 0.25 0.125 0.375 0.125s0.25-0.063 0.375-0.125l3.938-4c0.875 0.688 2 1.125 3.188 1.125 2.75 0 5-2.25 5-5s-2.25-5-5-5zM22 24c-2.188 0-4-1.813-4-4s1.813-4 4-4c2.188 0 4 1.813 4 4s-1.813 4-4 4z"></path>
</svg>
