<?xml version="1.0" encoding="utf-8"?>
<!-- Generated by IcoMoon.io -->
<!DOCTYPE svg PUBLIC "-//W3C//DTD SVG 1.1//EN" "http://www.w3.org/Graphics/SVG/1.1/DTD/svg11.dtd">
<svg version="1.1" xmlns="http://www.w3.org/2000/svg" xmlns:xlink="http://www.w3.org/1999/xlink" width="32" height="32" viewBox="0 0 32 32">
<path fill="#444444" d="M16 17c-4.438 0-6-4.375-6-8.438 0-3.938 0.75-7.563 6-7.563s6 3.625 6 7.563c0 4.125-1.563 8.438-6 8.438zM16 2c-4.188 0-5 2.5-5 6.563 0 1.25 0.25 7.438 5 7.438s5-6.188 5-7.438c0-4.063-0.813-6.563-5-6.563zM16 27c-3.313 0-14-0.188-14-2.938 0-0.063 0-0.063 0-0.063 0.563-4.625 1.625-6.938 8.438-8 0.25-0.063 0.5 0.125 0.563 0.438 0.063 0.25-0.125 0.5-0.438 0.563-6.188 0.938-7 2.688-7.563 7.063 0.063 0.688 4 1.938 13 1.938s12.938-1.25 13-1.938c-0.563-4.375-1.375-6.125-7.563-7.063-0.313-0.063-0.5-0.313-0.438-0.563 0.063-0.313 0.313-0.5 0.563-0.438 6.813 1.063 7.875 3.375 8.438 8 0 0 0 0 0 0.063 0 2.75-10.688 2.938-14 2.938z"></path>
</svg>
