<?xml version="1.0" encoding="utf-8"?>
<!-- Generated by IcoMoon.io -->
<!DOCTYPE svg PUBLIC "-//W3C//DTD SVG 1.1//EN" "http://www.w3.org/Graphics/SVG/1.1/DTD/svg11.dtd">
<svg version="1.1" xmlns="http://www.w3.org/2000/svg" xmlns:xlink="http://www.w3.org/1999/xlink" width="32" height="32" viewBox="0 0 32 32">
<path fill="#444444" d="M29.375 4.563c0-0.063 0-0.063-0.063-0.063 0 0 0 0 0 0-0.375-0.313-0.813-0.5-1.313-0.5h-24c-0.5 0-1 0.188-1.313 0.5 0 0-0.063 0-0.063 0.063 0 0 0 0 0 0-0.375 0.375-0.625 0.875-0.625 1.438v16c0 1.125 0.875 2 2 2h24c1.125 0 2-0.875 2-2v-16c0-0.563-0.25-1.125-0.625-1.438zM28 5c0.063 0 0.063 0 0.125 0l-11.438 11.5c-0.375 0.375-1.063 0.375-1.438 0l-11.438-11.5c0.063 0 0.125 0 0.188 0zM4 23c-0.063 0-0.188 0-0.25-0.063l7.125-7.063c0.188-0.188 0.188-0.563 0-0.75s-0.563-0.188-0.75 0l-7.063 7.125c-0.063-0.063-0.063-0.188-0.063-0.25v-16c0-0.125 0-0.188 0.063-0.313l11.5 11.5c0.375 0.375 0.875 0.563 1.438 0.563 0.5 0 1-0.188 1.375-0.563l11.563-11.563c0.063 0.125 0.063 0.25 0.063 0.375v16c0 0.063 0 0.188-0.063 0.25l-7.063-7.125c-0.188-0.188-0.563-0.188-0.75 0s-0.188 0.563 0 0.75l7.125 7.063c-0.063 0.063-0.188 0.063-0.25 0.063z"></path>
</svg>
