<?xml version="1.0" encoding="utf-8"?>
<!-- Generated by IcoMoon.io -->
<!DOCTYPE svg PUBLIC "-//W3C//DTD SVG 1.1//EN" "http://www.w3.org/Graphics/SVG/1.1/DTD/svg11.dtd">
<svg version="1.1" xmlns="http://www.w3.org/2000/svg" xmlns:xlink="http://www.w3.org/1999/xlink" width="32" height="32" viewBox="0 0 32 32">
<path fill="#444444" d="M23.5 9c-1.375 0-2.5-1.125-2.5-2.5s1.125-2.5 2.5-2.5c1.375 0 2.5 1.125 2.5 2.5s-1.125 2.5-2.5 2.5zM23.5 5c-0.813 0-1.5 0.688-1.5 1.5s0.688 1.5 1.5 1.5c0.813 0 1.5-0.688 1.5-1.5s-0.688-1.5-1.5-1.5zM13 27c-0.563 0-1.063-0.188-1.438-0.563l-8-8c-0.375-0.375-0.563-0.875-0.563-1.438s0.188-1.063 0.563-1.438l13.5-14c0.375-0.375 0.875-0.563 1.438-0.563h8.5c1.125 0 2 0.875 2 2v8.5c0 0.563-0.188 1.063-0.563 1.438l-14 13.5c-0.375 0.375-0.875 0.563-1.438 0.563zM18.5 2c-0.25 0-0.5 0.125-0.688 0.313l-13.5 14c-0.188 0.188-0.313 0.438-0.313 0.688s0.125 0.5 0.313 0.688l8 8c0.375 0.375 1 0.375 1.375 0l14-13.5c0.188-0.188 0.313-0.438 0.313-0.688v-8.5c0-0.563-0.438-1-1-1z"></path>
</svg>
