<?xml version="1.0" encoding="utf-8"?>
<!-- Generated by IcoMoon.io -->
<!DOCTYPE svg PUBLIC "-//W3C//DTD SVG 1.1//EN" "http://www.w3.org/Graphics/SVG/1.1/DTD/svg11.dtd">
<svg version="1.1" xmlns="http://www.w3.org/2000/svg" xmlns:xlink="http://www.w3.org/1999/xlink" width="32" height="32" viewBox="0 0 32 32">
<path fill="#444444" d="M16 16.628l14.335-6.941-14.335-6.941-14.335 6.941 14.335 6.941zM16 3.666l12.438 6.021-12.438 6.022-12.437-6.022 12.437-6.021z"></path>
<path fill="#444444" d="M23.83 20.083l4.608 2.231-12.438 6.021-12.436-6.021 4.614-2.234-0.523-0.666-5.99 2.9 14.335 6.941 14.335-6.941-5.981-2.897z"></path>
<path fill="#444444" d="M23.83 13.863l4.608 2.23-12.438 6.020-12.436-6.020 4.614-2.233-0.523-0.667-5.99 2.9 14.335 6.94 14.335-6.94-5.981-2.898z"></path>
</svg>
