<?xml version="1.0" encoding="utf-8"?>
<!-- Generated by IcoMoon.io -->
<!DOCTYPE svg PUBLIC "-//W3C//DTD SVG 1.1//EN" "http://www.w3.org/Graphics/SVG/1.1/DTD/svg11.dtd">
<svg version="1.1" xmlns="http://www.w3.org/2000/svg" xmlns:xlink="http://www.w3.org/1999/xlink" width="32" height="32" viewBox="0 0 32 32">
<path fill="#444444" d="M25.931 0h-19.862c-1.523 0-2.759 1.236-2.759 2.759v26.483c0 1.523 1.236 2.759 2.759 2.759h19.862c1.523 0 2.759-1.236 2.759-2.759v-26.483c0-1.523-1.236-2.759-2.759-2.759zM6.069 1.103h19.862c0.916 0 1.655 0.739 1.655 1.655v21.793h-23.172v-21.793c0-0.916 0.739-1.655 1.655-1.655zM25.931 30.897h-19.862c-0.916 0-1.655-0.739-1.655-1.655v-4.138h23.172v4.138c0 0.916-0.739 1.655-1.655 1.655z"></path>
<path fill="#444444" d="M17.103 28.138c0 0.609-0.494 1.103-1.103 1.103s-1.103-0.494-1.103-1.103c0-0.609 0.494-1.103 1.103-1.103s1.103 0.494 1.103 1.103z"></path>
<path fill="#444444" d="M6.069 9.655c0.154 0 0.276-0.121 0.276-0.276v-6.345h4.138c0.154 0 0.276-0.121 0.276-0.276s-0.121-0.276-0.276-0.276h-4.414c-0.154 0-0.276 0.121-0.276 0.276v6.621c0 0.154 0.121 0.276 0.276 0.276z"></path>
</svg>
