<?xml version="1.0" encoding="utf-8"?>
<!-- Generated by IcoMoon.io -->
<!DOCTYPE svg PUBLIC "-//W3C//DTD SVG 1.1//EN" "http://www.w3.org/Graphics/SVG/1.1/DTD/svg11.dtd">
<svg version="1.1" xmlns="http://www.w3.org/2000/svg" xmlns:xlink="http://www.w3.org/1999/xlink" width="32" height="32" viewBox="0 0 32 32">
<path fill="#444444" d="M23 26h-19v-19h14.5v1h-13.5v17h17v-13.5h1zM24.625 6.125l-10.625 10.688-0.813-0.813 10.688-10.625-0.75-0.75-11.125 11.188v2.188h2.188l11.188-11.125zM26.688 4.313l-1-1c-0.188-0.188-0.438-0.313-0.688-0.313s-0.5 0.125-0.688 0.313l-0.75 0.688 2.438 2.438 0.375-0.375 0.313-0.375c0.188-0.188 0.313-0.438 0.313-0.688s-0.125-0.5-0.313-0.688z"></path>
</svg>
