<?xml version="1.0" encoding="utf-8"?>
<!-- Generated by IcoMoon.io -->
<!DOCTYPE svg PUBLIC "-//W3C//DTD SVG 1.1//EN" "http://www.w3.org/Graphics/SVG/1.1/DTD/svg11.dtd">
<svg version="1.1" xmlns="http://www.w3.org/2000/svg" xmlns:xlink="http://www.w3.org/1999/xlink" width="32" height="32" viewBox="0 0 32 32">
<path fill="#444444" d="M27.315 5.23h-7.293c0.061-0.173 0.101-0.355 0.101-0.548v-1.058c0-0.906-0.736-1.641-1.641-1.641h-5.128c-0.905 0-1.641 0.736-1.641 1.641v1.058c0 0.192 0.040 0.375 0.101 0.548h-7.13c-0.302 0-0.546 0.244-0.546 0.546s0.244 0.546 0.546 0.546h2.329c-0.067 0.17-0.107 0.354-0.107 0.547v21.641c0 0.829 0.675 1.505 1.505 1.505h15.179c0.829 0 1.503-0.675 1.503-1.505v-21.641c0-0.194-0.040-0.377-0.107-0.547h2.328c0.302 0 0.548-0.245 0.548-0.546s-0.246-0.547-0.548-0.547zM12.807 4.683v-1.058c0-0.302 0.245-0.547 0.546-0.547h5.128c0.302 0 0.549 0.245 0.549 0.547v1.058c0 0.302-0.245 0.548-0.549 0.548h-5.128c-0.302-0-0.546-0.246-0.546-0.548zM24.273 6.87v21.641c0 0.378-0.306 0.684-0.683 0.684h-15.18c-0.377 0-0.684-0.306-0.684-0.684v-21.641c0-0.229 0.12-0.423 0.296-0.547h15.957c0.174 0.124 0.294 0.318 0.294 0.547z"></path>
<path fill="#444444" d="M11.282 9.662c-0.226 0-0.411 0.184-0.411 0.41v15.236c0 0.227 0.184 0.41 0.411 0.41s0.41-0.183 0.41-0.41v-15.236c0-0.226-0.184-0.411-0.41-0.411z"></path>
<path fill="#444444" d="M15.999 9.662c-0.226 0-0.41 0.184-0.41 0.41v15.236c0 0.227 0.184 0.41 0.41 0.41s0.411-0.183 0.411-0.41v-15.236c0-0.226-0.184-0.411-0.411-0.411z"></path>
<path fill="#444444" d="M20.785 25.719c0.227 0 0.41-0.183 0.41-0.41v-15.236c0-0.226-0.183-0.41-0.41-0.41-0.226 0-0.41 0.184-0.41 0.41v15.236c0 0.227 0.184 0.41 0.41 0.41z"></path>
</svg>
