<?xml version="1.0" encoding="utf-8"?>
<!-- Generated by IcoMoon.io -->
<!DOCTYPE svg PUBLIC "-//W3C//DTD SVG 1.1//EN" "http://www.w3.org/Graphics/SVG/1.1/DTD/svg11.dtd">
<svg version="1.1" xmlns="http://www.w3.org/2000/svg" xmlns:xlink="http://www.w3.org/1999/xlink" width="32" height="32" viewBox="0 0 32 32">
<path fill="#444444" d="M27 28h-23c-1.125 0-2-0.875-2-2v-23c0-1.125 0.875-2 2-2h23c1.125 0 2 0.875 2 2v23c0 1.125-0.875 2-2 2zM4 2c-0.563 0-1 0.438-1 1v23c0 0.563 0.438 1 1 1h23c0.563 0 1-0.438 1-1v-23c0-0.563-0.438-1-1-1zM18 19.5c0-1.188-0.875-2.188-2-2.438v-12.563c0-0.25-0.25-0.5-0.5-0.5s-0.5 0.25-0.5 0.5v12.563c-1.125 0.25-2 1.25-2 2.438s0.875 2.188 2 2.438v2.563c0 0.25 0.25 0.5 0.5 0.5s0.5-0.25 0.5-0.5v-2.563c1.125-0.25 2-1.25 2-2.438zM15.5 21c-0.813 0-1.5-0.688-1.5-1.5s0.688-1.5 1.5-1.5c0.813 0 1.5 0.688 1.5 1.5s-0.688 1.5-1.5 1.5zM25 14.5c0-1.188-0.875-2.188-2-2.438v-7.563c0-0.25-0.25-0.5-0.5-0.5s-0.5 0.25-0.5 0.5v7.563c-1.125 0.25-2 1.25-2 2.438s0.875 2.188 2 2.438v7.563c0 0.25 0.25 0.5 0.5 0.5s0.5-0.25 0.5-0.5v-7.563c1.125-0.25 2-1.25 2-2.438zM22.5 16c-0.813 0-1.5-0.688-1.5-1.5s0.688-1.5 1.5-1.5c0.813 0 1.5 0.688 1.5 1.5s-0.688 1.5-1.5 1.5zM11 9.5c0-1.188-0.875-2.188-2-2.438v-2.563c0-0.25-0.25-0.5-0.5-0.5s-0.5 0.25-0.5 0.5v2.563c-1.125 0.25-2 1.25-2 2.438s0.875 2.188 2 2.438v12.563c0 0.25 0.25 0.5 0.5 0.5s0.5-0.25 0.5-0.5v-12.563c1.125-0.25 2-1.25 2-2.438zM8.5 11c-0.813 0-1.5-0.688-1.5-1.5s0.688-1.5 1.5-1.5c0.813 0 1.5 0.688 1.5 1.5s-0.688 1.5-1.5 1.5z"></path>
</svg>
