<?xml version="1.0" encoding="utf-8"?>
<!-- Generated by IcoMoon.io -->
<!DOCTYPE svg PUBLIC "-//W3C//DTD SVG 1.1//EN" "http://www.w3.org/Graphics/SVG/1.1/DTD/svg11.dtd">
<svg version="1.1" xmlns="http://www.w3.org/2000/svg" xmlns:xlink="http://www.w3.org/1999/xlink" width="32" height="32" viewBox="0 0 32 32">
<path fill="#444444" d="M9 26c-1.125 0-2-0.875-2-2v-20c0-1.125 0.875-2 2-2 0.375 0 0.75 0.125 1.125 0.375l15 9.938c0.563 0.375 0.875 1 0.875 1.688s-0.313 1.313-0.875 1.688l-14.938 9.938c-0.438 0.25-0.813 0.375-1.188 0.375zM9 3c-0.563 0-1 0.438-1 1v20c0 0.563 0.438 1 1 1 0.188 0 0.375-0.063 0.625-0.188l14.938-10c0.25-0.188 0.438-0.5 0.438-0.813s-0.188-0.625-0.438-0.813l-14.938-10c-0.25-0.125-0.438-0.188-0.625-0.188z"></path>
</svg>
