<?xml version="1.0" encoding="utf-8"?>
<!-- Generated by IcoMoon.io -->
<!DOCTYPE svg PUBLIC "-//W3C//DTD SVG 1.1//EN" "http://www.w3.org/Graphics/SVG/1.1/DTD/svg11.dtd">
<svg version="1.1" xmlns="http://www.w3.org/2000/svg" xmlns:xlink="http://www.w3.org/1999/xlink" width="32" height="32" viewBox="0 0 32 32">
<path fill="#444444" d="M25.5 10h-2.5v-2.5c0-4.125-3.375-7.5-7.5-7.5s-7.5 3.375-7.5 7.5v2.5h-2.5c-0.25 0-0.5 0.25-0.5 0.5v15.5c0 1.125 0.875 2 2 2h17c1.125 0 2-0.875 2-2v-15.5c0-0.25-0.25-0.5-0.5-0.5zM9 7.5c0-3.563 2.938-6.5 6.5-6.5s6.5 2.938 6.5 6.5v2.5h-13zM25 26c0 0.563-0.438 1-1 1h-17c-0.563 0-1-0.438-1-1v-15h19zM17 17.5c0-0.813-0.688-1.5-1.5-1.5s-1.5 0.688-1.5 1.5c0 0.625 0.438 1.188 1 1.438v3.563c0 0.25 0.25 0.5 0.5 0.5s0.5-0.25 0.5-0.5v-3.563c0.563-0.25 1-0.813 1-1.438zM15.5 18c-0.25 0-0.5-0.25-0.5-0.5s0.25-0.5 0.5-0.5c0.25 0 0.5 0.25 0.5 0.5s-0.25 0.5-0.5 0.5z"></path>
</svg>
