<?xml version="1.0" encoding="utf-8"?>
<!-- Generated by IcoMoon.io -->
<!DOCTYPE svg PUBLIC "-//W3C//DTD SVG 1.1//EN" "http://www.w3.org/Graphics/SVG/1.1/DTD/svg11.dtd">
<svg version="1.1" xmlns="http://www.w3.org/2000/svg" xmlns:xlink="http://www.w3.org/1999/xlink" width="32" height="32" viewBox="0 0 32 32">
<path fill="#444444" d="M26 5h-3v-1.5c0-0.25-0.25-0.5-0.5-0.5s-0.5 0.25-0.5 0.5v1.5h-12v-1.5c0-0.25-0.25-0.5-0.5-0.5s-0.5 0.25-0.5 0.5v1.5h-3c-1.125 0-2 0.875-2 2v20c0 1.125 0.875 2 2 2h20c1.125 0 2-0.875 2-2v-20c0-1.125-0.875-2-2-2zM6 6h3v1.5c0 0.25 0.25 0.5 0.5 0.5s0.5-0.25 0.5-0.5v-1.5h12v1.5c0 0.25 0.25 0.5 0.5 0.5s0.5-0.25 0.5-0.5v-1.5h3c0.563 0 1 0.438 1 1v4h-22v-4c0-0.563 0.438-1 1-1zM26 28h-20c-0.563 0-1-0.438-1-1v-15h22v15c0 0.563-0.438 1-1 1zM16.75 16.063c-0.188-0.063-0.375-0.063-0.5 0l-1.5 1c-0.25 0.188-0.313 0.5-0.188 0.688 0.188 0.25 0.5 0.313 0.688 0.188l0.75-0.5v6.063c0 0.25 0.25 0.5 0.5 0.5s0.5-0.25 0.5-0.5v-7c0-0.188-0.125-0.375-0.25-0.438z"></path>
</svg>
