<?xml version="1.0" encoding="utf-8"?>
<!-- Generated by IcoMoon.io -->
<!DOCTYPE svg PUBLIC "-//W3C//DTD SVG 1.1//EN" "http://www.w3.org/Graphics/SVG/1.1/DTD/svg11.dtd">
<svg version="1.1" xmlns="http://www.w3.org/2000/svg" xmlns:xlink="http://www.w3.org/1999/xlink" width="32" height="32" viewBox="0 0 32 32">
<path fill="#444444" d="M9.5 28c-0.063 0-0.125 0-0.188-0.063-0.188-0.063-0.313-0.25-0.313-0.438v-4.5h-5c-1.125 0-2-0.875-2-2v-15c0-1.125 0.875-2 2-2h24c1.125 0 2 0.875 2 2v15c0 1.125-0.875 2-2 2h-13.313l-4.813 4.875c-0.125 0.063-0.25 0.125-0.375 0.125zM4 5c-0.563 0-1 0.438-1 1v15c0 0.563 0.438 1 1 1h5.5c0.25 0 0.5 0.25 0.5 0.5v3.813l4.125-4.188c0.125-0.063 0.25-0.125 0.375-0.125h13.5c0.563 0 1-0.438 1-1v-15c0-0.563-0.438-1-1-1zM10.5 15c-0.813 0-1.5-0.688-1.5-1.5s0.688-1.5 1.5-1.5c0.813 0 1.5 0.688 1.5 1.5s-0.688 1.5-1.5 1.5zM10.5 13c-0.25 0-0.5 0.25-0.5 0.5s0.25 0.5 0.5 0.5c0.25 0 0.5-0.25 0.5-0.5s-0.25-0.5-0.5-0.5zM16.5 15c-0.813 0-1.5-0.688-1.5-1.5s0.688-1.5 1.5-1.5c0.813 0 1.5 0.688 1.5 1.5s-0.688 1.5-1.5 1.5zM16.5 13c-0.25 0-0.5 0.25-0.5 0.5s0.25 0.5 0.5 0.5c0.25 0 0.5-0.25 0.5-0.5s-0.25-0.5-0.5-0.5zM22.5 15c-0.813 0-1.5-0.688-1.5-1.5s0.688-1.5 1.5-1.5c0.813 0 1.5 0.688 1.5 1.5s-0.688 1.5-1.5 1.5zM22.5 13c-0.25 0-0.5 0.25-0.5 0.5s0.25 0.5 0.5 0.5c0.25 0 0.5-0.25 0.5-0.5s-0.25-0.5-0.5-0.5z"></path>
</svg>
