<?xml version="1.0" encoding="utf-8"?>
<!-- Generated by IcoMoon.io -->
<!DOCTYPE svg PUBLIC "-//W3C//DTD SVG 1.1//EN" "http://www.w3.org/Graphics/SVG/1.1/DTD/svg11.dtd">
<svg version="1.1" xmlns="http://www.w3.org/2000/svg" xmlns:xlink="http://www.w3.org/1999/xlink" width="32" height="32" viewBox="0 0 32 32">
<path fill="#444444" d="M20.875 10.625l-4.5-4.5c-0.125-0.063-0.25-0.125-0.375-0.125h-10c-1.125 0-2 0.875-2 2v18c0 1.125 0.875 2 2 2h13c1.125 0 2-0.875 2-2v-15c0-0.125-0.063-0.25-0.125-0.375zM19.813 11h-2.813c-0.563 0-1-0.438-1-1v-2.813zM19 27h-13c-0.563 0-1-0.438-1-1v-18c0-0.563 0.438-1 1-1h9v3c0 1.125 0.875 2 2 2h3v14c0 0.563-0.438 1-1 1zM11.5 5c-0.25 0-0.5-0.25-0.5-0.5v-1.5c0-1.125 0.875-2 2-2 0.25 0 0.5 0.25 0.5 0.5s-0.25 0.5-0.5 0.5c-0.563 0-1 0.438-1 1v1.5c0 0.25-0.25 0.5-0.5 0.5zM27.875 5.625l-4.5-4.5c-0.125-0.063-0.25-0.125-0.375-0.125h-10c-0.25 0-0.5 0.25-0.5 0.5s0.25 0.5 0.5 0.5h9v3c0 1.125 0.875 2 2 2h3v14c0 0.563-0.438 1-1 1h-3.5c-0.25 0-0.5 0.25-0.5 0.5s0.25 0.5 0.5 0.5h3.5c1.125 0 2-0.875 2-2v-15c0-0.125-0.063-0.25-0.125-0.375zM23 5v-2.813l3.813 3.813h-2.813c-0.563 0-1-0.438-1-1z"></path>
</svg>
