<?xml version="1.0" encoding="utf-8"?>
<!-- Generated by IcoMoon.io -->
<!DOCTYPE svg PUBLIC "-//W3C//DTD SVG 1.1//EN" "http://www.w3.org/Graphics/SVG/1.1/DTD/svg11.dtd">
<svg version="1.1" xmlns="http://www.w3.org/2000/svg" xmlns:xlink="http://www.w3.org/1999/xlink" width="32" height="32" viewBox="0 0 32 32">
<path fill="#444444" d="M15.5 11c-0.25 0-0.5-0.25-0.5-0.5v-10c0-0.25 0.25-0.5 0.5-0.5s0.5 0.25 0.5 0.5v10c0 0.25-0.25 0.5-0.5 0.5zM15.5 28c-6.313 0-11.5-5.188-11.5-11.5 0-5.125 3.438-9.688 8.375-11.063 0.25-0.063 0.563 0.063 0.625 0.375 0.063 0.25-0.125 0.5-0.375 0.563-4.5 1.313-7.625 5.438-7.625 10.125 0 5.813 4.688 10.5 10.5 10.5s10.5-4.688 10.5-10.5c0-4.688-3.125-8.813-7.625-10.125-0.25-0.063-0.438-0.313-0.375-0.563 0.125-0.313 0.375-0.438 0.625-0.375 4.938 1.375 8.375 5.938 8.375 11.063 0 6.313-5.188 11.5-11.5 11.5z"></path>
</svg>
