<?xml version="1.0" encoding="utf-8"?>
<!-- Generated by IcoMoon.io -->
<!DOCTYPE svg PUBLIC "-//W3C//DTD SVG 1.1//EN" "http://www.w3.org/Graphics/SVG/1.1/DTD/svg11.dtd">
<svg version="1.1" xmlns="http://www.w3.org/2000/svg" xmlns:xlink="http://www.w3.org/1999/xlink" width="32" height="32" viewBox="0 0 32 32">
<path fill="#444444" d="M24.5 21h-4c-0.25 0-0.5-0.25-0.5-0.5s0.25-0.5 0.5-0.5h4c2.5 0 4.5-2 4.5-4.5 0-2.188-1.563-4-3.688-4.438-0.25-0.063-0.438-0.313-0.375-0.563 0.063-0.313 0.063-0.688 0.063-1 0-3.563-2.938-6.5-6.5-6.5-2.875 0-5.438 1.938-6.25 4.625 0 0.188-0.188 0.313-0.313 0.375-0.188 0-0.375 0-0.5-0.125-0.563-0.563-1.375-0.875-2.188-0.875-1.813 0-3.25 1.438-3.25 3.25 0 0.188 0 0.375 0.063 0.563 0 0.25-0.125 0.438-0.313 0.563-1.688 0.688-2.75 2.313-2.75 4.125 0 2.5 2 4.5 4.5 4.5h7c0.25 0 0.5 0.25 0.5 0.5s-0.25 0.5-0.5 0.5h-7c-3.063 0-5.5-2.438-5.5-5.5 0-2.063 1.188-4 3-4.938 0-0.063 0-0.188 0-0.313 0-2.313 1.938-4.25 4.25-4.25 0.813 0 1.625 0.25 2.313 0.688 1.125-2.813 3.875-4.688 6.938-4.688 4.125 0 7.5 3.375 7.5 7.5 0 0.25 0 0.438-0.063 0.688 2.375 0.688 4.063 2.813 4.063 5.313 0 3.063-2.438 5.5-5.5 5.5zM21.875 22.125c-0.188-0.188-0.563-0.188-0.75 0l-3.125 3.188v-13.813c0-0.25-0.25-0.5-0.5-0.5s-0.5 0.25-0.5 0.5v13.813l-3.125-3.188c-0.188-0.188-0.563-0.188-0.75 0s-0.188 0.563 0 0.75l4 4c0.063 0 0.125 0.063 0.188 0.063 0.063 0.063 0.125 0.063 0.188 0.063s0.125 0 0.188-0.063c0.063 0 0.125-0.063 0.188-0.063l4-4c0.188-0.188 0.188-0.563 0-0.75z"></path>
</svg>
