<?xml version="1.0" encoding="utf-8"?>
<!-- Generated by IcoMoon.io -->
<!DOCTYPE svg PUBLIC "-//W3C//DTD SVG 1.1//EN" "http://www.w3.org/Graphics/SVG/1.1/DTD/svg11.dtd">
<svg version="1.1" xmlns="http://www.w3.org/2000/svg" xmlns:xlink="http://www.w3.org/1999/xlink" width="32" height="32" viewBox="0 0 32 32">
<path fill="#444444" d="M11.521 19.399c-2.13 0-4.131-0.829-5.637-2.334-1.505-1.506-2.334-3.508-2.334-5.637s0.829-4.131 2.334-5.636c1.506-1.505 3.507-2.334 5.638-2.334 2.129 0 4.13 0.829 5.636 2.334 1.505 1.506 2.334 3.508 2.334 5.636s-0.829 4.13-2.334 5.636c-1.506 1.506-3.508 2.336-5.637 2.336zM11.523 4.912c-1.742 0-3.377 0.678-4.608 1.909s-1.909 2.867-1.909 4.607 0.678 3.377 1.909 4.607c1.231 1.231 2.866 1.909 4.607 1.909s3.377-0.677 4.607-1.909c1.231-1.231 1.908-2.867 1.908-4.607s-0.677-3.377-1.908-4.607c-1.23-1.231-2.867-1.909-4.607-1.909z"></path>
<path fill="#444444" d="M27.66 28.294c-0.186 0-0.372-0.071-0.514-0.213l-11.017-11.017c-0.284-0.284-0.284-0.745 0-1.029s0.745-0.284 1.030 0l11.017 11.017c0.283 0.284 0.283 0.745 0 1.029-0.143 0.142-0.329 0.213-0.515 0.213z"></path>
</svg>
