<?xml version="1.0" encoding="utf-8"?>
<!-- Generated by IcoMoon.io -->
<!DOCTYPE svg PUBLIC "-//W3C//DTD SVG 1.1//EN" "http://www.w3.org/Graphics/SVG/1.1/DTD/svg11.dtd">
<svg version="1.1" xmlns="http://www.w3.org/2000/svg" xmlns:xlink="http://www.w3.org/1999/xlink" width="32" height="32" viewBox="0 0 32 32">
<path fill="#444444" d="M15.5 28c-0.188 0-0.375-0.125-0.438-0.313l-7.188-15.438c-0.563-1.188-0.875-2.438-0.875-3.75 0-4.688 3.813-8.5 8.5-8.5s8.5 3.813 8.5 8.5c0 1.313-0.313 2.563-0.875 3.75l-7.188 15.438c-0.063 0.188-0.25 0.313-0.438 0.313zM15.5 1c-4.125 0-7.5 3.375-7.5 7.5 0 1.188 0.25 2.25 0.75 3.313l6.75 14.5 6.75-14.5c0.5-1.063 0.75-2.125 0.75-3.313 0-4.125-3.375-7.5-7.5-7.5zM15.5 12c-1.938 0-3.5-1.563-3.5-3.5s1.563-3.5 3.5-3.5c1.938 0 3.5 1.563 3.5 3.5s-1.563 3.5-3.5 3.5zM15.5 6c-1.375 0-2.5 1.125-2.5 2.5s1.125 2.5 2.5 2.5c1.375 0 2.5-1.125 2.5-2.5s-1.125-2.5-2.5-2.5z"></path>
</svg>
