<?xml version="1.0" encoding="utf-8"?>
<!-- Generated by IcoMoon.io -->
<!DOCTYPE svg PUBLIC "-//W3C//DTD SVG 1.1//EN" "http://www.w3.org/Graphics/SVG/1.1/DTD/svg11.dtd">
<svg version="1.1" xmlns="http://www.w3.org/2000/svg" xmlns:xlink="http://www.w3.org/1999/xlink" width="32" height="32" viewBox="0 0 32 32">
<path fill="#444444" d="M28.114 16.954c-0.046 3.169-1.305 6.148-3.548 8.39-4.724 4.724-12.412 4.724-17.137 0s-4.724-12.414 0-17.138c4.482-4.48 11.625-4.712 16.381-0.694l-4.287 1.103 0.218 1.055 6.186-1.466-0.031-0.030 0.025-0.007-1.204-6.13-1.041 0.273 0.878 4.425c-5.178-4.418-12.989-4.184-17.885 0.71-5.144 5.145-5.144 13.516 0 18.66 5.146 5.145 13.515 5.145 18.66 0 2.441-2.441 3.811-5.685 3.862-9.136l-1.076-0.015z"></path>
</svg>
