<?xml version="1.0" encoding="utf-8"?>
<!-- Generated by IcoMoon.io -->
<!DOCTYPE svg PUBLIC "-//W3C//DTD SVG 1.1//EN" "http://www.w3.org/Graphics/SVG/1.1/DTD/svg11.dtd">
<svg version="1.1" xmlns="http://www.w3.org/2000/svg" xmlns:xlink="http://www.w3.org/1999/xlink" width="32" height="32" viewBox="0 0 32 32">
<path fill="#444444" d="M29 25c-0.375 0-0.75-0.125-1.125-0.375l-14-8.938c-0.563-0.375-0.875-1-0.875-1.688s0.313-1.313 0.875-1.688l14-8.938c0.375-0.25 0.75-0.375 1.125-0.375 1.125 0 2 0.875 2 2v18c0 1.125-0.875 2-2 2zM29 4c-0.188 0-0.375 0.063-0.625 0.188l-13.938 9c-0.25 0.188-0.438 0.5-0.438 0.813s0.188 0.625 0.438 0.813l13.938 9c0.25 0.125 0.438 0.188 0.625 0.188 0.563 0 1-0.438 1-1v-18c0-0.563-0.438-1-1-1zM3 25c-1.125 0-2-0.875-2-2v-18c0-1.125 0.875-2 2-2s2 0.875 2 2v18c0 1.125-0.875 2-2 2zM3 4c-0.563 0-1 0.438-1 1v18c0 0.563 0.438 1 1 1s1-0.438 1-1v-18c0-0.563-0.438-1-1-1zM9 25c-1.125 0-2-0.875-2-2v-18c0-1.125 0.875-2 2-2s2 0.875 2 2v18c0 1.125-0.875 2-2 2zM9 4c-0.563 0-1 0.438-1 1v18c0 0.563 0.438 1 1 1s1-0.438 1-1v-18c0-0.563-0.438-1-1-1z"></path>
</svg>
