<?xml version="1.0" encoding="utf-8"?>
<!-- Generated by IcoMoon.io -->
<!DOCTYPE svg PUBLIC "-//W3C//DTD SVG 1.1//EN" "http://www.w3.org/Graphics/SVG/1.1/DTD/svg11.dtd">
<svg version="1.1" xmlns="http://www.w3.org/2000/svg" xmlns:xlink="http://www.w3.org/1999/xlink" width="32" height="32" viewBox="0 0 32 32">
<path fill="#444444" d="M22 2h-12c-1.125 0-2 0.875-2 2v24c0 1.125 0.875 2 2 2h12c1.125 0 2-0.875 2-2v-24c0-1.125-0.875-2-2-2zM9 7h14v18h-14zM10 3h12c0.563 0 1 0.438 1 1v2h-14v-2c0-0.563 0.438-1 1-1zM22 29h-12c-0.563 0-1-0.438-1-1v-2h14v2c0 0.563-0.438 1-1 1zM18.5 5h-3c-0.25 0-0.5-0.25-0.5-0.5s0.25-0.5 0.5-0.5h3c0.25 0 0.5 0.25 0.5 0.5s-0.25 0.5-0.5 0.5zM13.5 5c-0.125 0-0.25-0.063-0.375-0.125-0.063-0.125-0.125-0.25-0.125-0.375s0.063-0.25 0.125-0.375c0.188-0.188 0.563-0.188 0.75 0 0.063 0.125 0.125 0.25 0.125 0.375s-0.063 0.25-0.125 0.375c-0.125 0.063-0.25 0.125-0.375 0.125zM16.5 28h-1c-0.25 0-0.5-0.25-0.5-0.5s0.25-0.5 0.5-0.5h1c0.25 0 0.5 0.25 0.5 0.5s-0.25 0.5-0.5 0.5z"></path>
</svg>
