<?xml version="1.0" encoding="utf-8"?>
<!-- Generated by IcoMoon.io -->
<!DOCTYPE svg PUBLIC "-//W3C//DTD SVG 1.1//EN" "http://www.w3.org/Graphics/SVG/1.1/DTD/svg11.dtd">
<svg version="1.1" xmlns="http://www.w3.org/2000/svg" xmlns:xlink="http://www.w3.org/1999/xlink" width="32" height="32" viewBox="0 0 32 32">
<path fill="#444444" d="M15.5 24c-0.813 0-1.5-0.688-1.5-1.5s0.688-1.5 1.5-1.5c0.813 0 1.5 0.688 1.5 1.5s-0.688 1.5-1.5 1.5zM15.5 22c-0.25 0-0.5 0.25-0.5 0.5s0.25 0.5 0.5 0.5c0.25 0 0.5-0.25 0.5-0.5s-0.25-0.5-0.5-0.5zM15.5 20c-0.813 0-1.5-0.688-1.5-1.5v-8c0-0.813 0.688-1.5 1.5-1.5s1.5 0.688 1.5 1.5v8c0 0.813-0.688 1.5-1.5 1.5zM15.5 10c-0.25 0-0.5 0.25-0.5 0.5v8c0 0.25 0.25 0.5 0.5 0.5s0.5-0.25 0.5-0.5v-8c0-0.25-0.25-0.5-0.5-0.5zM26.5 28h-22c-1.938 0-3.5-1.563-3.5-3.5 0-0.688 0.313-1.5 0.375-1.563 0 0 0-0.063 0-0.063l11.25-17.375c0 0 0 0 0-0.063 0.688-0.875 1.75-1.438 2.875-1.438s2.188 0.563 2.875 1.438c0 0.063 0 0.063 0 0.063l11.25 17.375c0 0 0 0.063 0 0.063 0.063 0.125 0.375 0.875 0.375 1.563 0 1.938-1.563 3.5-3.5 3.5zM2.25 23.375c-0.063 0.188-0.25 0.75-0.25 1.125 0 1.375 1.125 2.5 2.5 2.5h22c1.375 0 2.5-1.125 2.5-2.5 0-0.375-0.188-0.938-0.25-1.125l-11.25-17.375c0 0 0 0 0 0-0.438-0.625-1.188-1-2-1s-1.563 0.375-2 1c0 0 0 0 0 0z"></path>
</svg>
