<?xml version="1.0" encoding="utf-8"?>
<!-- Generated by IcoMoon.io -->
<!DOCTYPE svg PUBLIC "-//W3C//DTD SVG 1.1//EN" "http://www.w3.org/Graphics/SVG/1.1/DTD/svg11.dtd">
<svg version="1.1" xmlns="http://www.w3.org/2000/svg" xmlns:xlink="http://www.w3.org/1999/xlink" width="32" height="32" viewBox="0 0 32 32">
<path fill="#444444" d="M21.875 6.625l-5.5-5.5c-0.125-0.063-0.25-0.125-0.375-0.125h-10c-1.125 0-2 0.875-2 2v20c0 1.125 0.875 2 2 2h6.5c0.25 0 0.5-0.25 0.5-0.5s-0.25-0.5-0.5-0.5h-6.5c-0.563 0-1-0.438-1-1v-20c0-0.563 0.438-1 1-1h9v4c0 1.125 0.875 2 2 2h4v6.5c0 0.25 0.25 0.5 0.5 0.5s0.5-0.25 0.5-0.5v-7.5c0-0.125-0.063-0.25-0.125-0.375zM16 6v-3.813l4.813 4.813h-3.813c-0.563 0-1-0.438-1-1zM26.625 15.375l-1-1c-0.5-0.5-1.313-0.438-1.75 0l-0.875 0.813c0 0 0 0-0.063 0 0 0 0 0 0 0l-7.563 7.688c0 0 0 0 0 0v0l-0.188 0.188c-0.063 0-0.063 0.063-0.125 0.125l-2 4.063c-0.125 0.25-0.063 0.438 0.063 0.625 0.125 0.063 0.25 0.125 0.375 0.125 0.063 0 0.125 0 0.25-0.063l4.063-2c0.063-0.063 0.125-0.063 0.125-0.125l8.688-8.688c0.5-0.438 0.5-1.25 0-1.75zM15.75 24l1.25 1.188-2.375 1.188zM17.813 24.563l-1.375-1.375 6.875-6.938 1.375 1.375zM25.938 16.438l-0.563 0.5-1.313-1.375 0.5-0.5c0.063-0.063 0.125-0.063 0.188-0.063 0 0 0.063 0 0.125 0.063l1.063 1.063c0.063 0.063 0.063 0.25 0 0.313z"></path>
</svg>
