<?xml version="1.0" encoding="utf-8"?>
<!-- Generated by IcoMoon.io -->
<!DOCTYPE svg PUBLIC "-//W3C//DTD SVG 1.1//EN" "http://www.w3.org/Graphics/SVG/1.1/DTD/svg11.dtd">
<svg version="1.1" xmlns="http://www.w3.org/2000/svg" xmlns:xlink="http://www.w3.org/1999/xlink" width="32" height="32" viewBox="0 0 32 32">
<path fill="#444444" d="M26 3h-8c-1.063 0-1.938 0.563-2.5 1.375-0.563-0.813-1.438-1.375-2.5-1.375h-8c-1.125 0-2 0.875-2 2v16c0 1.125 0.875 2 2 2h8c1.125 0 2 0.875 2 2h1c0-1.125 0.875-2 2-2h8c1.125 0 2-0.875 2-2v-16c0-1.125-0.875-2-2-2zM13 22h-8c-0.563 0-1-0.438-1-1v-16c0-0.563 0.438-1 1-1h8c1.125 0 2 0.875 2 2v16.75c-0.5-0.438-1.25-0.75-2-0.75zM27 21c0 0.563-0.438 1-1 1h-8c-0.75 0-1.5 0.313-2 0.75v-16.75c0-1.125 0.875-2 2-2h8c0.563 0 1 0.438 1 1z"></path>
</svg>
