<?xml version="1.0" encoding="utf-8"?>
<!-- Generated by IcoMoon.io -->
<!DOCTYPE svg PUBLIC "-//W3C//DTD SVG 1.1//EN" "http://www.w3.org/Graphics/SVG/1.1/DTD/svg11.dtd">
<svg version="1.1" xmlns="http://www.w3.org/2000/svg" xmlns:xlink="http://www.w3.org/1999/xlink" width="32" height="32" viewBox="0 0 32 32">
<path fill="#444444" d="M29.813 1.125c-0.125-0.125-0.313-0.125-0.5-0.125l-8.813 3-8.813-3c-0.063 0-0.125 0-0.188 0 0 0 0 0 0 0s0 0 0 0c-0.063 0-0.125 0-0.188 0l-9 3c-0.188 0.125-0.313 0.313-0.313 0.5v22c0 0.188 0.063 0.313 0.188 0.438 0.125 0 0.188 0.063 0.313 0.063 0.063 0 0.125 0 0.188 0l8.813-3 8.813 3c0.063 0 0.125 0 0.188 0 0 0 0 0 0 0s0 0 0 0c0.063 0 0.125 0 0.188 0l9-3c0.188-0.063 0.313-0.313 0.313-0.5v-22c0-0.188-0.063-0.313-0.188-0.375zM12 2.188l8 2.688v20.938l-8-2.688zM3 4.875l8-2.688v20.938l-8 2.688zM29 23.125l-8 2.688v-20.938l8-2.688z"></path>
</svg>
