<?xml version="1.0" encoding="utf-8"?>
<!-- Generated by IcoMoon.io -->
<!DOCTYPE svg PUBLIC "-//W3C//DTD SVG 1.1//EN" "http://www.w3.org/Graphics/SVG/1.1/DTD/svg11.dtd">
<svg version="1.1" xmlns="http://www.w3.org/2000/svg" xmlns:xlink="http://www.w3.org/1999/xlink" width="32" height="32" viewBox="0 0 32 32">
<path fill="#444444" d="M19.875 23.125c-0.188-0.188-0.563-0.188-0.75 0l-3.125 3.188v-13.813c0-0.25-0.25-0.5-0.5-0.5s-0.5 0.25-0.5 0.5v13.813l-3.125-3.188c-0.188-0.188-0.563-0.188-0.75 0s-0.188 0.563 0 0.75l4 4c0.063 0 0.125 0.063 0.188 0.063 0.063 0.063 0.125 0.063 0.188 0.063s0.125 0 0.188-0.063c0.063 0 0.125-0.063 0.188-0.063l4-4c0.188-0.188 0.188-0.563 0-0.75zM24.875 6.625l-5.5-5.5c-0.125-0.063-0.25-0.125-0.375-0.125h-11c-1.125 0-2 0.875-2 2v20c0 1.125 0.875 2 2 2h1.5c0.25 0 0.5-0.25 0.5-0.5s-0.25-0.5-0.5-0.5h-1.5c-0.563 0-1-0.438-1-1v-20c0-0.563 0.438-1 1-1h10v4c0 1.125 0.875 2 2 2h4v15c0 0.563-0.438 1-1 1h-1.5c-0.25 0-0.5 0.25-0.5 0.5s0.25 0.5 0.5 0.5h1.5c1.125 0 2-0.875 2-2v-16c0-0.125-0.063-0.25-0.125-0.375zM19 6v-3.813l4.813 4.813h-3.813c-0.563 0-1-0.438-1-1z"></path>
</svg>
