<?xml version="1.0" encoding="utf-8"?>
<!-- Generated by IcoMoon.io -->
<!DOCTYPE svg PUBLIC "-//W3C//DTD SVG 1.1//EN" "http://www.w3.org/Graphics/SVG/1.1/DTD/svg11.dtd">
<svg version="1.1" xmlns="http://www.w3.org/2000/svg" xmlns:xlink="http://www.w3.org/1999/xlink" width="32" height="32" viewBox="0 0 32 32">
<path fill="#444444" d="M27.287 17.017v10.055c0 0.896-0.727 1.624-1.624 1.624h-19.326c-0.896 0-1.624-0.727-1.624-1.624v-10.055c0-0.56 0.288-1.081 0.763-1.377l9.662-6.035c0.526-0.329 1.195-0.329 1.72 0l9.662 6.035c0.477 0.296 0.766 0.816 0.766 1.377zM31.238 12.529l-14.376-8.978c-0.526-0.329-1.194-0.329-1.72 0l-14.378 8.978c-0.761 0.475-0.991 1.477-0.517 2.238s1.474 0.994 2.238 0.518l13.516-8.442 13.515 8.44c0.268 0.167 0.564 0.247 0.86 0.247 0.542 0 1.070-0.27 1.378-0.764 0.476-0.762 0.244-1.762-0.515-2.237z"></path>
</svg>
