<?xml version="1.0" encoding="utf-8"?>
<!-- Generated by IcoMoon.io -->
<!DOCTYPE svg PUBLIC "-//W3C//DTD SVG 1.1//EN" "http://www.w3.org/Graphics/SVG/1.1/DTD/svg11.dtd">
<svg version="1.1" xmlns="http://www.w3.org/2000/svg" xmlns:xlink="http://www.w3.org/1999/xlink" width="32" height="32" viewBox="0 0 32 32">
<path fill="#444444" d="M15.5 30c-7.438 0-13.5-6.063-13.5-13.5s6.063-13.5 13.5-13.5c7.438 0 13.5 6.063 13.5 13.5s-6.063 13.5-13.5 13.5zM15.5 4c-6.875 0-12.5 5.625-12.5 12.5s5.625 12.5 12.5 12.5c6.875 0 12.5-5.625 12.5-12.5s-5.625-12.5-12.5-12.5zM15.5 12c-0.813 0-1.5-0.688-1.5-1.5s0.688-1.5 1.5-1.5c0.813 0 1.5 0.688 1.5 1.5s-0.688 1.5-1.5 1.5zM15.5 10c-0.25 0-0.5 0.25-0.5 0.5s0.25 0.5 0.5 0.5c0.25 0 0.5-0.25 0.5-0.5s-0.25-0.5-0.5-0.5zM15.5 25c-0.813 0-1.5-0.688-1.5-1.5v-9c0-0.813 0.688-1.5 1.5-1.5s1.5 0.688 1.5 1.5v9c0 0.813-0.688 1.5-1.5 1.5zM15.5 14c-0.25 0-0.5 0.25-0.5 0.5v9c0 0.25 0.25 0.5 0.5 0.5s0.5-0.25 0.5-0.5v-9c0-0.25-0.25-0.5-0.5-0.5z"></path>
</svg>
