<?xml version="1.0" encoding="utf-8"?>
<!-- Generated by IcoMoon.io -->
<!DOCTYPE svg PUBLIC "-//W3C//DTD SVG 1.1//EN" "http://www.w3.org/Graphics/SVG/1.1/DTD/svg11.dtd">
<svg version="1.1" xmlns="http://www.w3.org/2000/svg" xmlns:xlink="http://www.w3.org/1999/xlink" width="32" height="32" viewBox="0 0 32 32">
<path fill="#444444" d="M29.931 16.468l-3.041-2.753v-6.569c0-0.283-0.23-0.512-0.512-0.512h-2.677c-0.136 0-0.267 0.053-0.363 0.15s-0.151 0.227-0.149 0.364l0.007 3.221-6.631-6.006c-0.194-0.176-0.486-0.177-0.683-0.005l-13.81 12.164c-0.176 0.155-0.225 0.409-0.117 0.617 0.106 0.207 0.34 0.319 0.568 0.267l3.069-0.693v9.466c-0.003 0.082-0.005 0.509 0.304 0.831 0.137 0.141 0.383 0.311 0.778 0.311 0.738 0 6.85-0.008 6.85-0.008 0.284 0 0.511-0.23 0.512-0.512l0.008-5.66c-0.005-0.066 0.007-0.233 0.075-0.308 0.046-0.049 0.145-0.061 0.217-0.061h2.844c0.128 0 0.3 0.020 0.389 0.113 0.098 0.1 0.096 0.274 0.095 0.301l-0.013 5.596c0 0.136 0.053 0.266 0.149 0.363s0.228 0.151 0.363 0.151h6.707c0.456 0 0.736-0.192 0.889-0.353 0.358-0.372 0.346-0.882 0.343-0.917v-9.468l3.369 0.788c0.23 0.055 0.462-0.055 0.572-0.261s0.063-0.46-0.111-0.617zM24.216 7.658h1.651v5.128l-1.643-1.488-0.008-3.64zM25.706 15.413c-0.151-0.036-0.313 0-0.434 0.098s-0.194 0.245-0.194 0.402v10.127c0 0.055-0.020 0.157-0.058 0.196-0.032 0.031-0.107 0.035-0.149 0.035h-6.193l0.011-5.047c0.005-0.061 0.030-0.61-0.364-1.034-0.189-0.201-0.539-0.441-1.143-0.441h-2.844c-0.511 0-0.815 0.218-0.979 0.399-0.351 0.39-0.345 0.912-0.337 1.058l-0.008 5.083c-1.485 0.002-5.731 0.007-6.338 0.007-0.019 0-0.030-0.001-0.037-0.001-0.001 0-0.003 0-0.003 0-0.010-0.020-0.016-0.059-0.016-0.095v-10.128c0-0.155-0.072-0.303-0.193-0.4-0.122-0.097-0.282-0.133-0.433-0.1l-1.737 0.392 11.961-10.535 6.983 6.325v0.030h0.033l4.542 4.114-2.068-0.485z"></path>
</svg>
