<?xml version="1.0" encoding="utf-8"?>
<!-- Generated by IcoMoon.io -->
<!DOCTYPE svg PUBLIC "-//W3C//DTD SVG 1.1//EN" "http://www.w3.org/Graphics/SVG/1.1/DTD/svg11.dtd">
<svg version="1.1" xmlns="http://www.w3.org/2000/svg" xmlns:xlink="http://www.w3.org/1999/xlink" width="32" height="32" viewBox="0 0 32 32">
<path fill="#444444" d="M24.5 28h-22c-0.25 0-0.5-0.25-0.5-0.5v-22c0-0.25 0.25-0.5 0.5-0.5h22c0.25 0 0.5 0.25 0.5 0.5v3c0 0.25-0.25 0.5-0.5 0.5s-0.5-0.25-0.5-0.5v-2.5h-21v21h21v-13c0-0.25 0.25-0.5 0.5-0.5s0.5 0.25 0.5 0.5v13.5c0 0.25-0.25 0.5-0.5 0.5zM13.5 23c-0.125 0-0.25-0.063-0.375-0.125l-5-5c-0.188-0.188-0.188-0.563 0-0.75s0.563-0.188 0.75 0l4.625 4.688 15.625-15.688c0.188-0.188 0.563-0.188 0.75 0s0.188 0.563 0 0.75l-16 16c-0.125 0.063-0.25 0.125-0.375 0.125z"></path>
</svg>
