<?xml version="1.0" encoding="utf-8"?>
<!-- Generated by IcoMoon.io -->
<!DOCTYPE svg PUBLIC "-//W3C//DTD SVG 1.1//EN" "http://www.w3.org/Graphics/SVG/1.1/DTD/svg11.dtd">
<svg version="1.1" xmlns="http://www.w3.org/2000/svg" xmlns:xlink="http://www.w3.org/1999/xlink" width="32" height="32" viewBox="0 0 32 32">
<path fill="#444444" d="M1.105 18.725h2.607v10.426c0 0.614 0.503 1.117 1.117 1.117h7.633c0.614 0 1.117-0.503 1.117-1.117v-7.633h4.654v7.633c0 0.614 0.503 1.117 1.117 1.117h7.261c0.614 0 1.117-0.503 1.117-1.117v-10.426h3.165c0.447 0 0.856-0.279 1.024-0.689s0.074-0.894-0.242-1.21l-14.559-14.764c-0.428-0.428-1.136-0.447-1.564-0.019l-15.211 14.764c-0.335 0.317-0.428 0.801-0.261 1.229s0.577 0.689 1.024 0.689zM16.298 4.427l11.915 12.064h-1.601c-0.614 0-1.117 0.503-1.117 1.117v10.426h-5.027v-7.633c0-0.614-0.503-1.117-1.117-1.117h-6.889c-0.614 0-1.117 0.503-1.117 1.117v7.633h-5.399v-10.426c0-0.614-0.503-1.117-1.117-1.117h-0.968l12.437-12.064z"></path>
</svg>
