<?xml version="1.0" encoding="utf-8"?>
<!-- Generated by IcoMoon.io -->
<!DOCTYPE svg PUBLIC "-//W3C//DTD SVG 1.1//EN" "http://www.w3.org/Graphics/SVG/1.1/DTD/svg11.dtd">
<svg version="1.1" xmlns="http://www.w3.org/2000/svg" xmlns:xlink="http://www.w3.org/1999/xlink" width="32" height="32" viewBox="0 0 32 32">
<path fill="#444444" d="M22 14c0-2.188-1.125-4.125-3-5.188v-6.313c0-0.813-0.688-1.5-1.5-1.5-0.313 0-0.625 0.125-0.938 0.313l-9.25 7.688h-3.313c-1.125 0-2 0.875-2 2v6c0 1.125 0.875 2 2 2h3.313l9.313 7.688c0.25 0.188 0.563 0.313 0.875 0.313 0.813 0 1.5-0.688 1.5-1.5v-6.313c1.875-1.063 3-3 3-5.188zM18 25.5c0 0.25-0.25 0.5-0.5 0.5-0.125 0-0.188-0.063-0.313-0.063l-9.375-7.813c-0.063-0.063-0.188-0.125-0.313-0.125h-3.5c-0.563 0-1-0.438-1-1v-6c0-0.563 0.438-1 1-1h3.5c0.125 0 0.25-0.063 0.313-0.125l9.375-7.75c0.125-0.063 0.188-0.125 0.313-0.125 0.25 0 0.5 0.25 0.5 0.5zM19 18v-8c1.25 0.938 2 2.438 2 4s-0.75 3.063-2 4zM25.625 23.125c-0.125 0-0.313-0.063-0.375-0.188-0.188-0.188-0.188-0.5 0.063-0.688 2.313-2.125 3.688-5.125 3.688-8.25s-1.375-6.125-3.688-8.25c-0.188-0.188-0.25-0.5-0.063-0.688s0.5-0.25 0.688-0.063c2.563 2.313 4.063 5.563 4.063 9s-1.5 6.688-4.063 9c-0.063 0.063-0.188 0.125-0.313 0.125zM22.75 20.313c-0.125 0-0.25-0.063-0.375-0.188-0.188-0.25-0.125-0.563 0.063-0.75 1.625-1.313 2.563-3.25 2.563-5.375 0-2.063-0.938-4.063-2.5-5.375-0.25-0.188-0.25-0.5-0.063-0.688 0.125-0.25 0.438-0.25 0.688-0.063 1.813 1.5 2.875 3.75 2.875 6.125s-1.063 4.625-2.938 6.188c-0.063 0.063-0.188 0.125-0.313 0.125z"></path>
</svg>
