<?xml version="1.0" encoding="utf-8"?>
<!-- Generated by IcoMoon.io -->
<!DOCTYPE svg PUBLIC "-//W3C//DTD SVG 1.1//EN" "http://www.w3.org/Graphics/SVG/1.1/DTD/svg11.dtd">
<svg version="1.1" xmlns="http://www.w3.org/2000/svg" xmlns:xlink="http://www.w3.org/1999/xlink" width="32" height="32" viewBox="0 0 32 32">
<path fill="#444444" d="M29.5 8h-1.5v-1c0-1.125-0.875-2-2-2h-12c-1 0-1.25-0.313-1.625-0.813s-0.875-1.188-2.375-1.188h-6c-1.125 0-2 0.875-2 2v19c0 1.125 0.875 2 2 2h24c1.125 0 2-0.875 2-2v-15.5c0-0.25-0.25-0.5-0.5-0.5zM4 8.5v16.5c-0.563 0-1-0.438-1-1v-19c0-0.563 0.438-1 1-1h6c1 0 1.25 0.313 1.625 0.813s0.875 1.188 2.375 1.188h12c0.563 0 1 0.438 1 1v1h-22.5c-0.25 0-0.5 0.25-0.5 0.5zM29 24c0 0.563-0.438 1-1 1h-23v-16h24z"></path>
</svg>
